<svg width="20" height="20" viewBox="0 0 20 20" fill="none" xmlns="http://www.w3.org/2000/svg">
<g clip-path="url(#clip0_3_605)">
<path d="M8.97664 2.24C9.25001 2.02733 9.58285 1.90511 9.92888 1.89032C10.2749 1.87554 10.617 1.96892 10.9075 2.1575L11.0233 2.24083L18.01 7.67417C18.6108 8.14167 18.3183 9.08417 17.5941 9.16167L17.4975 9.16667H16.6666V15.8333C16.6668 16.2538 16.508 16.6588 16.2221 16.9671C15.9362 17.2754 15.5443 17.4643 15.125 17.4958L15 17.5H4.99998C4.57964 17.4999 4.17486 17.341 3.86672 17.0551C3.55857 16.7692 3.36984 16.3775 3.33831 15.9583L3.33331 15.8333V9.16667H2.50248C1.74164 9.16667 1.39248 8.24333 1.91664 7.7375L1.98998 7.67417L8.97664 2.24ZM9.99998 3.55583L4.68748 7.6875C4.87831 7.84167 4.99998 8.0775 4.99998 8.34167V15.8333H7.49998V11.6667C7.49998 11.0036 7.76337 10.3677 8.23221 9.8989C8.70105 9.43006 9.33694 9.16667 9.99998 9.16667C10.663 9.16667 11.2989 9.43006 11.7677 9.8989C12.2366 10.3677 12.5 11.0036 12.5 11.6667V15.8333H15V8.34167C15 8.0775 15.1216 7.84167 15.3125 7.6875L9.99998 3.55583ZM9.99998 10.8333C9.77896 10.8333 9.567 10.9211 9.41072 11.0774C9.25444 11.2337 9.16664 11.4457 9.16664 11.6667V15.8333H10.8333V11.6667C10.8333 11.4457 10.7455 11.2337 10.5892 11.0774C10.433 10.9211 10.221 10.8333 9.99998 10.8333Z" fill="#111111"/>
</g>
<defs>
<clipPath id="clip0_3_605">
<rect width="20" height="20" fill="white"/>
</clipPath>
</defs>
</svg>
