<svg width="20" height="20" viewBox="0 0 20 20" fill="none" xmlns="http://www.w3.org/2000/svg">
<g clip-path="url(#clip0_3_789)">
<path fill-rule="evenodd" clip-rule="evenodd" d="M10 10.8333C11.9967 10.8333 13.8125 11.4117 15.1483 12.2267C15.815 12.6333 16.385 13.1133 16.7967 13.635C17.2017 14.1475 17.5 14.7608 17.5 15.4167C17.5 16.1208 17.1575 16.6758 16.6642 17.0717C16.1975 17.4467 15.5817 17.695 14.9275 17.8683C13.6125 18.2158 11.8575 18.3333 10 18.3333C8.1425 18.3333 6.3875 18.2167 5.0725 17.8683C4.41833 17.695 3.8025 17.4467 3.33583 17.0717C2.84167 16.675 2.5 16.1208 2.5 15.4167C2.5 14.7608 2.79833 14.1475 3.20333 13.6342C3.615 13.1133 4.18417 12.6342 4.85167 12.2258C6.1875 11.4125 8.00417 10.8333 10 10.8333ZM10 12.5C8.31417 12.5 6.7975 12.9917 5.72 13.6492C5.18083 13.9775 4.77417 14.3342 4.51167 14.6675C4.24167 15.0092 4.16667 15.2675 4.16667 15.4167C4.16667 15.5183 4.1975 15.6258 4.37917 15.7717C4.58667 15.9383 4.9475 16.1108 5.49917 16.2567C6.5975 16.5483 8.17583 16.6667 10 16.6667C11.825 16.6667 13.4025 16.5475 14.5 16.2567C15.0525 16.1108 15.4133 15.9383 15.6208 15.7717C15.8025 15.6258 15.8333 15.5183 15.8333 15.4167C15.8333 15.2667 15.7583 15.0092 15.4892 14.6675C15.2258 14.3342 14.8192 13.9775 14.28 13.6492C13.2025 12.9908 11.6858 12.5 10 12.5ZM10 1.66667C11.1051 1.66667 12.1649 2.10566 12.9463 2.88706C13.7277 3.66846 14.1667 4.72827 14.1667 5.83334C14.1667 6.93841 13.7277 7.99821 12.9463 8.77962C12.1649 9.56102 11.1051 10 10 10C8.89493 10 7.83512 9.56102 7.05372 8.77962C6.27232 7.99821 5.83333 6.93841 5.83333 5.83334C5.83333 4.72827 6.27232 3.66846 7.05372 2.88706C7.83512 2.10566 8.89493 1.66667 10 1.66667ZM10 3.33334C9.6717 3.33334 9.34661 3.398 9.04329 3.52364C8.73998 3.64928 8.46438 3.83343 8.23223 4.06557C8.00009 4.29772 7.81594 4.57332 7.6903 4.87663C7.56466 5.17994 7.5 5.50503 7.5 5.83334C7.5 6.16164 7.56466 6.48673 7.6903 6.79005C7.81594 7.09336 8.00009 7.36896 8.23223 7.60111C8.46438 7.83325 8.73998 8.0174 9.04329 8.14304C9.34661 8.26867 9.6717 8.33334 10 8.33334C10.663 8.33334 11.2989 8.06995 11.7678 7.60111C12.2366 7.13226 12.5 6.49638 12.5 5.83334C12.5 5.1703 12.2366 4.53441 11.7678 4.06557C11.2989 3.59673 10.663 3.33334 10 3.33334Z" fill="#111111"/>
</g>
<defs>
<clipPath id="clip0_3_789">
<rect width="20" height="20" fill="white"/>
</clipPath>
</defs>
</svg>
