<svg width="22" height="22" viewBox="0 0 22 22" fill="none" xmlns="http://www.w3.org/2000/svg">
<path fill-rule="evenodd" clip-rule="evenodd" d="M7.29279 11.3763C7.10532 11.1888 7 10.9345 7 10.6693C7 10.4041 7.10532 10.1498 7.29279 9.96229L12.9498 4.30529C13.042 4.20978 13.1524 4.1336 13.2744 4.08119C13.3964 4.02878 13.5276 4.00119 13.6604 4.00004C13.7932 3.99888 13.9248 4.02419 14.0477 4.07447C14.1706 4.12475 14.2823 4.199 14.3762 4.29289C14.4701 4.38679 14.5443 4.49844 14.5946 4.62133C14.6449 4.74423 14.6702 4.87591 14.669 5.00869C14.6679 5.14147 14.6403 5.27269 14.5879 5.39469C14.5355 5.5167 14.4593 5.62704 14.3638 5.71929L9.41379 10.6693L14.3638 15.6193C14.5459 15.8079 14.6467 16.0605 14.6445 16.3227C14.6422 16.5849 14.537 16.8357 14.3516 17.0211C14.1662 17.2065 13.9154 17.3117 13.6532 17.314C13.391 17.3162 13.1384 17.2154 12.9498 17.0333L7.29279 11.3763Z" fill="#333333"/>
</svg>
