<svg width="20" height="20" viewBox="0 0 20 20" fill="none" xmlns="http://www.w3.org/2000/svg">
<g clip-path="url(#clip0_3_665)">
<path fill-rule="evenodd" clip-rule="evenodd" d="M5 6.66667C5 5.34059 5.52678 4.06882 6.46447 3.13114C7.40215 2.19346 8.67392 1.66667 10 1.66667C11.3261 1.66667 12.5979 2.19346 13.5355 3.13114C14.4732 4.06882 15 5.34059 15 6.66667H15.8333C16.2754 6.66667 16.6993 6.84227 17.0118 7.15483C17.3244 7.46739 17.5 7.89131 17.5 8.33334V16.6667C17.5 17.1087 17.3244 17.5326 17.0118 17.8452C16.6993 18.1577 16.2754 18.3333 15.8333 18.3333H4.16667C3.72464 18.3333 3.30072 18.1577 2.98816 17.8452C2.67559 17.5326 2.5 17.1087 2.5 16.6667V8.33334C2.5 7.89131 2.67559 7.46739 2.98816 7.15483C3.30072 6.84227 3.72464 6.66667 4.16667 6.66667H5ZM10 3.33334C10.8841 3.33334 11.7319 3.68453 12.357 4.30965C12.9821 4.93477 13.3333 5.78262 13.3333 6.66667H6.66667C6.66667 5.78262 7.01786 4.93477 7.64298 4.30965C8.2681 3.68453 9.11594 3.33334 10 3.33334ZM11.6667 11.6667C11.6667 11.9592 11.5896 12.2466 11.4434 12.5C11.2971 12.7533 11.0867 12.9637 10.8333 13.11V14.1667C10.8333 14.3877 10.7455 14.5996 10.5893 14.7559C10.433 14.9122 10.221 15 10 15C9.77899 15 9.56702 14.9122 9.41074 14.7559C9.25446 14.5996 9.16667 14.3877 9.16667 14.1667V13.11C8.84895 12.9266 8.60065 12.6434 8.46026 12.3044C8.31987 11.9655 8.29524 11.5897 8.3902 11.2353C8.48515 10.8809 8.69439 10.5678 8.98544 10.3444C9.2765 10.1211 9.63312 10 10 10C10.442 10 10.866 10.1756 11.1785 10.4882C11.4911 10.8007 11.6667 11.2246 11.6667 11.6667Z" fill="#111111"/>
</g>
<defs>
<clipPath id="clip0_3_665">
<rect width="20" height="20" fill="white"/>
</clipPath>
</defs>
</svg>
