<svg width="20" height="20" viewBox="0 0 20 20" fill="none" xmlns="http://www.w3.org/2000/svg">
<g clip-path="url(#clip0_3_777)">
<path fill-rule="evenodd" clip-rule="evenodd" d="M4.16669 6.25C4.16669 5.75754 4.26368 5.26991 4.45214 4.81494C4.64059 4.35997 4.91682 3.94657 5.26504 3.59835C5.61326 3.25013 6.02665 2.97391 6.48162 2.78545C6.93659 2.597 7.42423 2.5 7.91669 2.5C8.40914 2.5 8.89678 2.597 9.35175 2.78545C9.80672 2.97391 10.2201 3.25013 10.5683 3.59835C10.9166 3.94657 11.1928 4.35997 11.3812 4.81494C11.5697 5.26991 11.6667 5.75754 11.6667 6.25C11.6667 7.24456 11.2716 8.19839 10.5683 8.90165C9.86508 9.60491 8.91125 10 7.91669 10C6.92212 10 5.9683 9.60491 5.26504 8.90165C4.56177 8.19839 4.16669 7.24456 4.16669 6.25ZM7.91669 4.16667C7.36415 4.16667 6.83425 4.38616 6.44355 4.77686C6.05285 5.16756 5.83335 5.69747 5.83335 6.25C5.83335 6.80253 6.05285 7.33244 6.44355 7.72314C6.83425 8.11384 7.36415 8.33333 7.91669 8.33333C8.46922 8.33333 8.99913 8.11384 9.38983 7.72314C9.78053 7.33244 10 6.80253 10 6.25C10 5.69747 9.78053 5.16756 9.38983 4.77686C8.99913 4.38616 8.46922 4.16667 7.91669 4.16667ZM7.91669 10.8333C9.57752 10.8333 11.0875 11.34 12.1975 12.055C12.7534 12.4133 13.2292 12.8358 13.575 13.2967C13.9142 13.7508 14.1667 14.2967 14.1667 14.8808C14.1667 15.51 13.875 16.0142 13.4467 16.3783C13.0425 16.72 12.5159 16.9417 11.9717 17.0942C10.8775 17.4 9.43002 17.5 7.91669 17.5C6.40335 17.5 4.95585 17.4 3.86252 17.0942C3.31752 16.9417 2.79085 16.72 2.38752 16.3783C1.95752 16.015 1.66669 15.51 1.66669 14.8808C1.66669 14.2958 1.91919 13.7508 2.25835 13.2975C2.60419 12.8358 3.08002 12.4125 3.63585 12.0558C4.74585 11.3392 6.25585 10.8333 7.91669 10.8333ZM7.91669 12.5C6.58585 12.5 5.38752 12.91 4.53752 13.4567C4.11252 13.73 3.79585 14.025 3.59252 14.2958C3.38419 14.5742 3.33335 14.7758 3.33335 14.8808C3.33335 14.9425 3.34585 15.0058 3.46419 15.1058C3.60835 15.2292 3.87585 15.3675 4.31085 15.4892C5.17752 15.7308 6.43835 15.8333 7.91669 15.8333C9.39502 15.8333 10.6559 15.7308 11.5225 15.4892C11.9575 15.3675 12.225 15.2292 12.3692 15.1058C12.4875 15.0058 12.5 14.9425 12.5 14.8808C12.5 14.7758 12.4492 14.5742 12.2409 14.2958C12.0375 14.025 11.7209 13.73 11.2959 13.4567C10.4459 12.91 9.24752 12.5 7.91669 12.5ZM15 10.8333C16.1 10.8333 17.0984 11.1967 17.8334 11.7092C18.5184 12.1867 19.1667 12.94 19.1667 13.8092C19.1667 14.2983 18.9559 14.7033 18.635 14.9975C18.3375 15.2708 17.9609 15.4375 17.5984 15.5475C16.8734 15.7667 15.94 15.8333 15 15.8333H14.8309C14.9392 15.5433 15 15.225 15 14.8808C14.9989 14.6942 14.9822 14.5136 14.95 14.3392L14.9109 14.1667H15C15.9009 14.1667 16.6334 14.0983 17.1159 13.9525C17.3342 13.8858 17.4467 13.8192 17.495 13.7808C17.4709 13.6825 17.3409 13.3975 16.88 13.0767C16.4785 12.8031 16.0219 12.6206 15.5424 12.542C15.063 12.4634 14.5721 12.4906 14.1042 12.6217C13.7008 12.1426 13.2278 11.7268 12.7009 11.3883C13.4125 11.0239 14.2005 10.8337 15 10.8333ZM12.5 7.5C12.5 6.83696 12.7634 6.20107 13.2323 5.73223C13.7011 5.26339 14.337 5 15 5C15.6631 5 16.2989 5.26339 16.7678 5.73223C17.2366 6.20107 17.5 6.83696 17.5 7.5C17.5 8.16304 17.2366 8.79893 16.7678 9.26777C16.2989 9.73661 15.6631 10 15 10C14.337 10 13.7011 9.73661 13.2323 9.26777C12.7634 8.79893 12.5 8.16304 12.5 7.5ZM15 6.66667C14.779 6.66667 14.567 6.75446 14.4108 6.91074C14.2545 7.06702 14.1667 7.27899 14.1667 7.5C14.1667 7.72101 14.2545 7.93297 14.4108 8.08926C14.567 8.24554 14.779 8.33333 15 8.33333C15.221 8.33333 15.433 8.24554 15.5893 8.08926C15.7456 7.93297 15.8334 7.72101 15.8334 7.5C15.8334 7.27899 15.7456 7.06702 15.5893 6.91074C15.433 6.75446 15.221 6.66667 15 6.66667Z" fill="#111111"/>
</g>
<defs>
<clipPath id="clip0_3_777">
<rect width="20" height="20" fill="white"/>
</clipPath>
</defs>
</svg>
