<svg width="20" height="20" viewBox="0 0 20 20" fill="none" xmlns="http://www.w3.org/2000/svg">
<g clip-path="url(#clip0_3_609)">
<path d="M11.0233 2.24C10.7307 2.01241 10.3707 1.88884 9.99998 1.88884C9.62932 1.88884 9.26922 2.01241 8.97665 2.24L1.98998 7.67333C1.36332 8.1625 1.70832 9.16666 2.50248 9.16666H3.33332V15.8333C3.33332 16.2754 3.50891 16.6993 3.82147 17.0118C4.13403 17.3244 4.55796 17.5 4.99998 17.5H8.33332V12.5C8.33332 12.058 8.50891 11.634 8.82147 11.3215C9.13403 11.0089 9.55796 10.8333 9.99998 10.8333C10.442 10.8333 10.8659 11.0089 11.1785 11.3215C11.4911 11.634 11.6667 12.058 11.6667 12.5V17.5H15C15.442 17.5 15.8659 17.3244 16.1785 17.0118C16.4911 16.6993 16.6667 16.2754 16.6667 15.8333V9.16666H17.4975C18.2908 9.16666 18.6375 8.1625 18.01 7.67416L11.0233 2.24Z" fill="#111111"/>
</g>
<defs>
<clipPath id="clip0_3_609">
<rect width="20" height="20" fill="white"/>
</clipPath>
</defs>
</svg>
