<svg width="20" height="20" viewBox="0 0 20 20" fill="none" xmlns="http://www.w3.org/2000/svg">
<g clip-path="url(#clip0_3_960)">
<path fill-rule="evenodd" clip-rule="evenodd" d="M8.75002 3.33333C7.31343 3.33333 5.93568 3.90401 4.91986 4.91984C3.90404 5.93566 3.33335 7.31341 3.33335 8.75C3.33335 10.1866 3.90404 11.5643 4.91986 12.5802C5.93568 13.596 7.31343 14.1667 8.75002 14.1667C10.1866 14.1667 11.5644 13.596 12.5802 12.5802C13.596 11.5643 14.1667 10.1866 14.1667 8.75C14.1667 7.31341 13.596 5.93566 12.5802 4.91984C11.5644 3.90401 10.1866 3.33333 8.75002 3.33333ZM1.66669 8.75C1.66678 7.62049 1.93699 6.50738 2.45477 5.50354C2.97254 4.49971 3.72287 3.63424 4.64315 2.97936C5.56343 2.32448 6.62698 1.89917 7.74506 1.73892C8.86314 1.57867 10.0033 1.68812 11.0705 2.05815C12.1377 2.42817 13.1009 3.04804 13.8798 3.86603C14.6587 4.68402 15.2307 5.67642 15.548 6.76043C15.8654 7.84443 15.9189 8.98862 15.7041 10.0975C15.4893 11.2064 15.0125 12.2479 14.3134 13.135L17.3567 16.1783C17.5085 16.3355 17.5925 16.546 17.5906 16.7645C17.5887 16.983 17.501 17.192 17.3465 17.3465C17.192 17.501 16.983 17.5887 16.7645 17.5906C16.546 17.5925 16.3355 17.5085 16.1784 17.3567L13.135 14.3133C12.0905 15.1367 10.8354 15.6493 9.51312 15.7926C8.1909 15.9359 6.85504 15.704 5.65843 15.1235C4.46183 14.543 3.45282 13.6374 2.74688 12.5102C2.04094 11.3831 1.6666 10.08 1.66669 8.75ZM7.91669 5.83333C7.91669 5.61232 8.00448 5.40036 8.16076 5.24408C8.31705 5.0878 8.52901 5 8.75002 5C9.74458 5 10.6984 5.39509 11.4017 6.09835C12.1049 6.80161 12.5 7.75544 12.5 8.75C12.5 8.97101 12.4122 9.18297 12.2559 9.33925C12.0997 9.49553 11.8877 9.58333 11.6667 9.58333C11.4457 9.58333 11.2337 9.49553 11.0774 9.33925C10.9212 9.18297 10.8334 8.97101 10.8334 8.75C10.8334 8.19746 10.6139 7.66756 10.2232 7.27686C9.83246 6.88616 9.30255 6.66666 8.75002 6.66666C8.52901 6.66666 8.31705 6.57887 8.16076 6.42259C8.00448 6.26631 7.91669 6.05434 7.91669 5.83333Z" fill="#111111"/>
</g>
<defs>
<clipPath id="clip0_3_960">
<rect width="20" height="20" fill="white"/>
</clipPath>
</defs>
</svg>
