<svg width="20" height="20" viewBox="0 0 20 20" fill="none" xmlns="http://www.w3.org/2000/svg">
<g clip-path="url(#clip0_3_573)">
<path d="M1.72335 4.56834L9.11919 11.965C9.33798 12.1839 9.63022 12.3139 9.93934 12.3298C10.2485 12.3456 10.5525 12.2462 10.7925 12.0508L10.8875 11.965L18.2784 4.57334C18.3022 4.665 18.3184 4.75861 18.3267 4.85417L18.3334 5V15C18.3335 15.4205 18.1747 15.8255 17.8888 16.1338C17.6029 16.4421 17.211 16.631 16.7917 16.6625L16.6667 16.6667H3.33335C2.91287 16.6668 2.50788 16.508 2.19956 16.2221C1.89125 15.9362 1.70239 15.5443 1.67085 15.125L1.66669 15V5C1.66669 4.9 1.67502 4.80278 1.69169 4.70834L1.72335 4.56834ZM16.6667 3.33334C16.7678 3.33334 16.8664 3.34195 16.9625 3.35917L17.1042 3.39167L10.0042 10.4917L2.90169 3.39C2.99391 3.365 3.08835 3.34834 3.18502 3.34L3.33335 3.33334H16.6667Z" fill="#111111"/>
</g>
<defs>
<clipPath id="clip0_3_573">
<rect width="20" height="20" fill="white"/>
</clipPath>
</defs>
</svg>
