<svg width="20" height="20" viewBox="0 0 20 20" fill="none" xmlns="http://www.w3.org/2000/svg">
<g clip-path="url(#clip0_3_781)">
<path d="M7.91669 10C8.91125 10 9.86508 9.60491 10.5683 8.90165C11.2716 8.19839 11.6667 7.24456 11.6667 6.25C11.6667 5.25544 11.2716 4.30161 10.5683 3.59835C9.86508 2.89509 8.91125 2.5 7.91669 2.5C6.92212 2.5 5.9683 2.89509 5.26504 3.59835C4.56177 4.30161 4.16669 5.25544 4.16669 6.25C4.16669 7.24456 4.56177 8.19839 5.26504 8.90165C5.9683 9.60491 6.92212 10 7.91669 10ZM17.5 7.5C17.5 8.16304 17.2366 8.79893 16.7678 9.26777C16.2989 9.73661 15.6631 10 15 10C14.337 10 13.7011 9.73661 13.2323 9.26777C12.7634 8.79893 12.5 8.16304 12.5 7.5C12.5 6.83696 12.7634 6.20107 13.2323 5.73223C13.7011 5.26339 14.337 5 15 5C15.6631 5 16.2989 5.26339 16.7678 5.73223C17.2366 6.20107 17.5 6.83696 17.5 7.5ZM7.91669 10.8333C9.57752 10.8333 11.0875 11.34 12.1975 12.055C12.7534 12.4133 13.2292 12.8358 13.575 13.2967C13.9142 13.7508 14.1667 14.2967 14.1667 14.8808C14.1667 15.51 13.875 16.0142 13.4467 16.3783C13.0425 16.72 12.5159 16.9417 11.9717 17.0942C10.8775 17.4 9.43002 17.5 7.91669 17.5C6.40335 17.5 4.95585 17.4 3.86252 17.0942C3.31752 16.9417 2.79085 16.72 2.38752 16.3783C1.95752 16.015 1.66669 15.51 1.66669 14.8808C1.66669 14.2958 1.91919 13.7508 2.25835 13.2975C2.60419 12.8358 3.08002 12.4125 3.63585 12.0558C4.74585 11.3392 6.25585 10.8333 7.91669 10.8333ZM15 10.8333C16.1 10.8333 17.0984 11.1967 17.8334 11.7092C18.5184 12.1867 19.1667 12.94 19.1667 13.8092C19.1667 14.2983 18.9559 14.7033 18.635 14.9975C18.3375 15.2708 17.9609 15.4375 17.5984 15.5475C16.8734 15.7667 15.94 15.8333 15 15.8333H14.8309C14.9392 15.5433 15 15.225 15 14.8808C15 14.0558 14.6475 13.3392 14.2417 12.7975C13.8367 12.2567 13.3 11.7808 12.7009 11.3883C13.4125 11.0239 14.2005 10.8337 15 10.8333Z" fill="#111111"/>
</g>
<defs>
<clipPath id="clip0_3_781">
<rect width="20" height="20" fill="white"/>
</clipPath>
</defs>
</svg>
